 http://www.imdb.com/title/tt2354407/

Plot: Thrice upon a love story

Video

Format/Info : (MKV) Advanced Video Codec
Format profile : High@L4.1
Format settings, CABAC : Yes
Format settings, ReFrames : 4 frames
Muxing mode : Header stripping
Codec ID : V_MPEG4/ISO/AVC
Duration : 1h 58mn
Bit rate : 2 000 Kbps
Width : 1 280 pixels
Height : 536 pixels
Display aspect ratio : 2.35:1
Frame rate : 23.976 fps
Stream size : 1.61 GiB (89%)


Audio

Format : AC-3
Bit rate mode : Constant
Bit rate : 192 Kbps
Channel(s) : 6 channels
Channel positions : Front: L C R, Side: L R, LFE
Sampling rate : 48.0 KHz
Bit depth : 16 bits
Stream size : 162 MiB (11%)

 
http://www.shotpix.com/images/48805084245418741319.png
 
http://www.shotpix.com/images/29294782693338220821.png
 
http://www.shotpix.com/images/76012604924996160746.png
 
http://www.shotpix.com/images/93013301402726789570.png
 
http://www.shotpix.com/images/34591985910838595481.png
 
http://www.shotpix.com/images/56941302922600593339.png